<?xml version="1.0" standalone="no"?>
<!DOCTYPE svg PUBLIC "-//W3C//DTD SVG 20010904//EN"
 "http://www.w3.org/TR/2001/REC-SVG-20010904/DTD/svg10.dtd">
<svg version="1.0" xmlns="http://www.w3.org/2000/svg"
 width="842.000000pt" height="854.000000pt" viewBox="0 0 842.000000 854.000000"
 preserveAspectRatio="xMidYMid meet">

<g transform="translate(0.000000,854.000000) scale(0.100000,-0.100000)"
fill="#000000" stroke="none">
<path d="M6585 8504 c-11 -2 -45 -9 -75 -15 -66 -13 -197 -47 -225 -59 -11 -4
-47 -19 -80 -32 -33 -12 -95 -42 -138 -65 -42 -24 -82 -43 -87 -43 -6 0 -10
-5 -10 -10 0 -6 -10 -14 -22 -19 -31 -12 -161 -116 -223 -178 -62 -62 -135
-143 -135 -149 0 -3 -9 -15 -21 -27 -38 -41 -126 -181 -179 -287 -77 -154 -80
-160 -80 -179 0 -9 -4 -21 -9 -26 -11 -13 -38 -99 -46 -150 -4 -22 -13 -62
-20 -90 -26 -93 -38 -245 -31 -390 7 -164 19 -280 34 -316 5 -14 13 -51 17
-82 4 -32 11 -60 16 -63 5 -3 9 -15 9 -27 0 -12 7 -35 15 -51 8 -15 15 -36 15
-45 0 -10 7 -26 15 -37 8 -10 15 -25 15 -32 0 -7 14 -42 30 -77 28 -59 37 -95
25 -95 -3 0 -31 13 -62 29 -82 42 -150 71 -165 71 -8 0 -18 4 -23 9 -20 17
-250 80 -365 99 -229 38 -486 50 -680 33 -194 -17 -300 -30 -355 -41 -181 -38
-242 -53 -257 -61 -10 -5 -28 -9 -40 -9 -13 0 -36 -7 -52 -15 -15 -8 -36 -15
-45 -15 -9 -1 -34 -9 -56 -20 -22 -11 -45 -19 -51 -20 -7 0 -25 -7 -40 -15
-65 -34 -66 -22 -4 103 32 64 67 137 78 162 45 105 99 279 108 350 3 30 13 80
20 110 17 65 19 381 3 450 -6 25 -15 74 -20 109 -10 62 -58 222 -79 259 -5 9
-19 40 -30 67 -20 47 -77 151 -110 200 -54 80 -74 105 -81 105 -5 0 -9 4 -9
10 0 27 -275 273 -340 303 -8 4 -28 16 -45 27 -44 28 -144 75 -190 90 -22 7
-45 16 -50 21 -11 8 -30 13 -185 51 -73 18 -118 21 -315 22 -281 1 -347 -9
-580 -86 -172 -57 -346 -146 -475 -242 -30 -23 -62 -45 -71 -51 -19 -11 -146
-124 -188 -166 -76 -78 -116 -124 -176 -205 -37 -49 -73 -97 -81 -107 -8 -9
-14 -19 -14 -22 0 -2 -13 -23 -29 -47 -60 -90 -221 -447 -221 -492 0 -7 -7
-27 -15 -42 -8 -16 -15 -42 -15 -57 0 -16 -5 -38 -11 -49 -11 -21 -18 -60 -40
-228 -13 -103 -6 -441 11 -525 7 -33 19 -81 26 -107 8 -26 14 -56 14 -68 0
-12 6 -36 14 -53 7 -18 24 -61 36 -97 13 -36 27 -69 30 -75 4 -5 11 -25 15
-42 3 -18 10 -33 15 -33 5 0 12 -10 16 -22 19 -60 147 -251 236 -352 69 -79
182 -186 196 -186 4 0 21 -12 37 -28 36 -32 61 -48 95 -63 13 -5 27 -14 30
-18 4 -6 104 -56 185 -92 109 -48 247 -72 415 -72 133 1 168 4 250 26 52 14
97 23 99 21 5 -5 -10 -35 -44 -89 -14 -22 -28 -47 -31 -55 -4 -8 -13 -22 -20
-30 -6 -8 -33 -55 -59 -105 -26 -49 -53 -99 -60 -110 -7 -11 -36 -76 -64 -145
-29 -69 -58 -138 -65 -155 -18 -42 -35 -92 -52 -150 -8 -27 -22 -72 -30 -100
-24 -80 -43 -168 -80 -375 -23 -131 -23 -596 0 -683 9 -32 16 -73 16 -91 0
-18 9 -62 20 -96 11 -34 20 -69 20 -77 0 -7 9 -41 20 -74 21 -61 21 -61 1
-102 -55 -117 -63 -166 -59 -329 2 -84 9 -164 15 -178 6 -14 19 -50 28 -80 9
-30 25 -73 34 -95 10 -22 21 -47 25 -55 3 -8 15 -28 26 -45 11 -16 23 -37 26
-45 10 -22 98 -151 125 -183 88 -105 166 -186 244 -256 77 -69 255 -201 271
-201 8 0 14 -5 14 -10 0 -6 10 -15 23 -20 12 -6 36 -19 52 -30 17 -11 41 -25
55 -30 13 -6 27 -14 30 -18 7 -10 95 -52 109 -52 6 0 11 -4 11 -9 0 -5 13 -12
30 -16 16 -4 30 -11 30 -16 0 -5 8 -9 18 -9 9 -1 35 -9 57 -20 22 -11 47 -19
55 -20 9 0 20 -4 25 -8 9 -8 44 -20 180 -62 92 -28 307 -67 415 -75 61 -5 67
-8 95 -43 42 -53 274 -282 286 -282 5 0 19 -9 31 -20 26 -24 152 -100 166
-100 6 0 12 -3 14 -7 3 -9 85 -41 163 -65 74 -23 216 -42 266 -35 121 17 177
27 204 36 17 5 59 20 95 32 82 29 220 99 270 139 21 16 43 30 49 30 6 0 11 4
11 8 0 4 15 16 33 27 17 10 100 87 184 171 134 135 156 153 193 159 72 12 323
96 440 147 25 11 61 27 80 35 19 9 55 26 80 38 25 13 79 40 120 60 41 21 77
41 80 45 3 3 28 19 55 35 243 139 524 402 656 615 126 203 184 449 149 630
-18 93 -30 140 -46 190 -16 50 -16 52 5 80 11 16 21 36 21 43 0 8 7 20 15 27
8 7 15 19 15 26 0 8 4 22 10 32 15 25 40 101 50 148 5 22 13 51 18 65 6 13 19
71 29 129 28 163 26 595 -5 782 -12 75 -27 149 -32 163 -6 15 -10 41 -10 60 0
19 -4 36 -9 39 -5 3 -12 23 -15 43 -9 50 -45 173 -57 195 -5 10 -9 25 -9 33 0
13 -24 79 -83 229 -11 27 -132 272 -166 335 -8 14 -18 28 -23 29 -4 2 -8 7 -8
12 0 5 -18 35 -39 67 -21 32 -37 61 -35 64 1 3 43 -3 91 -14 247 -53 472 -47
708 20 92 25 286 109 293 126 2 4 7 7 12 7 12 0 127 77 185 124 85 69 197 187
260 271 17 22 33 42 38 43 4 2 7 8 7 12 0 5 13 28 29 52 46 69 79 134 122 237
22 53 44 105 49 116 9 19 34 112 60 225 8 30 17 87 21 125 4 39 13 117 20 174
9 82 9 125 0 205 -7 55 -16 135 -21 177 -4 42 -12 92 -18 110 -6 19 -15 59
-21 89 -15 77 -32 142 -42 162 -5 10 -9 22 -9 28 0 35 -138 343 -191 425 -10
17 -22 37 -26 45 -10 23 -47 75 -55 78 -5 2 -8 8 -8 14 0 39 -261 312 -369
385 -20 13 -38 27 -41 31 -7 10 -75 47 -150 83 -36 17 -73 35 -83 40 -9 5 -36
15 -60 23 -117 38 -155 48 -201 57 -28 5 -71 13 -96 19 -43 9 -393 12 -435 4z
m-1750 -2597 c81 -20 115 -34 193 -75 67 -35 134 -78 182 -116 36 -29 229
-224 264 -266 35 -43 86 -117 86 -125 0 -3 8 -15 18 -25 35 -38 154 -268 194
-375 73 -198 106 -318 128 -480 6 -38 14 -94 20 -124 18 -97 12 -434 -9 -578
-23 -147 -45 -268 -62 -333 -16 -61 -107 -340 -119 -365 -18 -38 -90 -206 -90
-210 0 -9 49 -5 55 4 3 6 27 13 53 16 26 4 79 13 119 21 215 42 521 -24 688
-150 43 -32 155 -146 155 -158 0 -4 13 -26 28 -50 49 -75 88 -203 96 -318 20
-265 -80 -493 -324 -741 -63 -65 -167 -156 -230 -203 -63 -47 -120 -90 -127
-96 -7 -5 -14 -10 -17 -10 -2 0 -44 -26 -93 -58 -134 -89 -416 -239 -618 -329
-55 -25 -115 -52 -133 -60 -18 -9 -36 -13 -39 -9 -4 3 8 26 25 50 18 24 32 49
32 55 0 6 4 11 8 11 5 0 16 16 25 35 17 35 9 46 -15 21 -22 -22 -89 -96 -168
-186 -92 -103 -223 -234 -280 -280 -24 -19 -58 -47 -75 -63 -18 -15 -38 -27
-44 -27 -6 0 -11 -3 -11 -7 0 -11 -75 -55 -180 -108 -62 -30 -100 -44 -232
-80 -77 -21 -290 -21 -366 1 -136 38 -253 91 -312 140 -15 13 -30 24 -33 24
-16 0 -115 96 -422 412 -126 130 -175 169 -175 141 0 -7 47 -70 70 -93 9 -9
31 -39 50 -68 18 -29 37 -52 42 -52 4 0 8 -7 8 -15 0 -8 -5 -15 -11 -15 -29 0
-404 130 -504 175 -27 12 -79 35 -115 50 -36 16 -72 34 -80 41 -8 6 -26 15
-39 19 -14 4 -39 16 -55 26 -17 10 -51 29 -76 41 -45 23 -201 117 -210 128
-13 14 -70 50 -80 50 -5 0 -10 3 -10 8 0 4 -17 18 -38 32 -40 27 -52 37 -152
125 -200 178 -325 350 -415 570 -69 168 -68 397 1 538 8 16 14 32 14 37 0 31
110 162 210 250 33 30 204 120 227 120 7 0 21 4 31 10 19 10 86 26 177 41 33
6 111 8 173 5 61 -3 112 -1 112 3 0 5 -13 39 -30 76 -16 37 -30 73 -30 82 0 8
-5 24 -12 36 -14 26 -63 203 -84 302 -27 132 -54 397 -54 522 1 104 30 394 49
478 6 28 16 73 22 100 36 167 104 358 190 530 55 109 58 116 106 192 18 29 33
57 33 62 0 5 3 11 8 13 4 2 25 28 46 58 66 92 195 228 289 303 118 96 218 151
359 198 83 28 106 32 213 33 96 1 130 -3 170 -18 108 -41 206 -132 282 -259
69 -115 134 -285 152 -397 7 -43 8 -44 18 -20 6 14 15 52 21 85 15 88 33 159
43 170 5 5 9 17 9 26 0 10 16 51 35 92 19 41 35 78 35 81 0 15 85 132 124 170
81 80 122 106 226 140 55 17 172 15 255 -7z"/>
<path d="M4503 4753 c-22 -4 -109 -83 -130 -118 -57 -95 -100 -213 -127 -350
-46 -236 -50 -283 -49 -595 0 -286 1 -314 26 -452 15 -81 27 -151 27 -156 0
-5 -84 -9 -190 -10 -104 0 -190 2 -190 5 0 3 9 36 19 72 46 156 56 261 56 556
-1 286 -6 346 -52 550 -22 101 -71 243 -99 290 -13 22 -28 49 -33 60 -13 27
-67 85 -80 85 -6 0 -11 4 -11 10 0 15 -71 30 -112 24 -52 -9 -132 -85 -170
-164 -7 -14 -15 -27 -18 -30 -17 -16 -61 -134 -93 -250 -62 -222 -83 -515 -52
-750 13 -103 23 -147 64 -281 24 -78 102 -204 158 -255 31 -29 29 -36 -14 -59
-55 -29 -156 -105 -149 -112 3 -4 32 6 63 21 143 69 255 103 498 150 118 23
398 21 535 -4 165 -30 285 -67 398 -121 24 -12 45 -19 48 -17 14 15 -157 128
-193 128 -21 0 -15 14 22 50 68 66 195 276 195 323 0 7 4 17 9 22 12 13 46
156 65 276 57 347 -44 843 -206 1021 -73 79 -124 99 -215 81z m120 -81 c43
-29 85 -92 140 -212 17 -37 43 -131 73 -265 14 -65 18 -124 17 -320 0 -132 -5
-260 -11 -285 -47 -196 -57 -231 -93 -308 -16 -34 -29 -65 -29 -68 0 -12 -71
-111 -113 -158 -38 -42 -47 -48 -70 -42 -27 6 -36 32 -18 52 14 15 48 144 61
235 19 126 1 339 -34 404 -9 17 -16 35 -16 41 0 7 -16 26 -37 44 -31 27 -42
31 -74 27 -45 -6 -82 -39 -123 -109 -15 -27 -30 -48 -33 -48 -6 0 3 286 10
330 3 14 7 57 11 95 15 155 74 392 118 475 20 38 60 93 82 113 26 23 102 23
139 -1z m-963 -35 c89 -79 158 -280 196 -572 16 -118 29 -391 22 -450 -3 -28
-5 -26 -34 35 -68 143 -148 176 -228 94 -61 -63 -96 -199 -96 -376 0 -123 6
-162 45 -291 22 -74 23 -78 5 -87 -33 -18 -56 -11 -88 26 -18 20 -32 38 -32
39 0 2 -13 24 -30 48 -16 25 -30 49 -30 53 0 5 -6 20 -13 34 -26 51 -47 118
-67 220 -20 96 -21 129 -17 375 3 225 8 286 25 370 51 241 102 369 178 454 43
48 49 51 92 51 34 -1 54 -7 72 -23z"/>
<path d="M3926 2859 c-50 -5 -94 -13 -100 -19 -5 -5 -20 -10 -32 -10 -47 0
-272 -98 -282 -122 -2 -4 -8 -8 -13 -8 -14 0 -86 -64 -119 -106 -36 -45 -51
-77 -64 -134 -12 -52 -12 -68 0 -122 16 -68 72 -152 128 -190 17 -12 33 -25
36 -28 5 -6 146 -75 185 -90 114 -45 349 -69 506 -51 123 13 142 17 264 55
129 40 223 95 308 180 71 71 98 124 104 212 5 62 2 77 -22 129 -37 82 -120
160 -221 209 -112 54 -121 57 -249 87 -61 13 -328 19 -429 8z"/>
<path d="M2310 2263 c-14 -2 -29 -9 -34 -14 -6 -5 -18 -9 -29 -9 -10 0 -42
-10 -70 -22 -138 -58 -233 -155 -251 -255 -4 -24 -2 -33 9 -33 7 0 16 9 20 19
9 31 102 110 173 149 l43 24 19 -24 c11 -13 19 -27 20 -31 0 -4 5 -13 10 -20
6 -7 29 -37 51 -67 77 -106 222 -256 369 -381 32 -27 183 -127 232 -154 35
-19 94 -90 170 -205 57 -88 128 -200 128 -204 0 -9 168 -257 224 -331 77 -102
204 -234 281 -292 82 -62 225 -127 315 -144 142 -27 300 -15 445 33 67 22 188
79 193 90 2 5 8 8 14 8 23 0 192 148 268 236 83 95 217 309 348 554 10 19 42
80 71 134 29 55 63 116 75 135 12 20 28 49 36 65 19 38 84 107 130 138 54 36
85 64 200 179 109 109 130 132 194 211 35 44 39 46 64 35 15 -6 29 -14 32 -18
3 -3 16 -12 28 -18 48 -25 131 -105 168 -160 15 -23 29 -39 32 -37 11 12 -22
103 -54 152 -51 77 -131 145 -221 190 l-78 39 -150 0 c-123 0 -155 -3 -180
-17 l-30 -17 50 -1 c90 0 300 -53 309 -76 3 -7 -9 -30 -27 -50 -38 -45 -230
-238 -272 -274 -63 -54 -295 -220 -308 -220 -3 0 -40 -20 -81 -45 -42 -25 -83
-45 -90 -45 -7 0 -19 -7 -26 -15 -7 -8 -20 -15 -29 -15 -9 0 -25 -6 -36 -13
-11 -8 -49 -24 -85 -37 -36 -13 -69 -27 -75 -30 -5 -4 -26 -11 -45 -15 -19 -4
-39 -11 -45 -15 -5 -4 -21 -10 -35 -13 -14 -3 -61 -15 -105 -27 -44 -12 -116
-28 -160 -36 -44 -8 -109 -19 -145 -26 -86 -15 -574 -15 -660 0 -119 21 -175
32 -220 43 -92 23 -186 51 -217 65 -17 8 -35 14 -41 14 -9 0 -62 22 -172 72
-124 55 -241 125 -369 222 -107 79 -263 229 -340 326 -28 36 -58 73 -66 82
-36 43 -48 69 -37 80 25 25 179 56 285 57 78 1 85 14 22 38 -41 15 -200 26
-245 16z m2613 -1350 c53 -17 57 -20 52 -42 -4 -14 -12 -30 -19 -35 -7 -6 -30
-36 -51 -66 -22 -30 -49 -65 -62 -77 -13 -12 -23 -24 -23 -26 0 -5 -98 -103
-122 -122 -7 -6 -31 -24 -53 -40 -22 -17 -42 -33 -45 -36 -14 -16 -192 -94
-245 -107 -69 -17 -331 -28 -348 -14 -7 5 -30 13 -52 16 -43 8 -188 73 -193
87 -2 5 -8 9 -13 9 -5 0 -19 8 -31 17 -42 33 -178 166 -178 174 0 27 181 134
279 166 64 20 182 44 192 38 4 -3 10 -1 14 5 3 5 25 10 48 10 50 -1 195 -34
209 -48 7 -7 2 -21 -15 -44 -29 -37 -45 -88 -29 -88 6 0 15 6 19 13 12 19 100
87 112 87 6 0 11 4 11 9 0 5 8 12 18 15 20 7 54 27 73 43 19 14 134 53 158 53
11 0 23 5 26 10 11 18 204 12 268 -7z"/>
</g>
</svg>
